<svg width="514" height="238" viewBox="0 0 514 238" fill="none" xmlns="http://www.w3.org/2000/svg">
<path opacity="0.06" d="M-172.576 22.9041C-170.95 18.1659 -167.138 14.1601 -161.094 10.9366C-155.042 7.70819 -146.855 5.3243 -136.71 3.80952C-116.423 0.780529 -88.6384 1.27247 -55.2803 5.10938C11.4111 12.7803 100.049 33.7807 194.804 66.3117C289.558 98.8426 372.404 136.715 429.743 171.626C458.424 189.088 480.651 205.767 494.799 220.617C501.875 228.044 506.871 234.954 509.664 241.219C512.453 247.475 513.001 252.978 511.374 257.716C509.747 262.454 505.935 266.46 499.892 269.684C493.84 272.912 485.652 275.296 475.507 276.811C455.221 279.84 427.436 279.348 394.078 275.511C327.387 267.84 238.749 246.839 143.994 214.308C49.2391 181.777 -33.6062 143.905 -90.9456 108.994C-119.626 91.5319 -141.854 74.8536 -156.002 60.0028C-163.077 52.5759 -168.074 45.6658 -170.867 39.4006C-173.655 33.145 -174.203 27.6424 -172.576 22.9041Z" stroke="url(#paint0_linear_1115_63)" stroke-width="3"/>
<defs>
<linearGradient id="paint0_linear_1115_63" x1="588.86" y1="303.733" x2="-95.9765" y2="-0.314843" gradientUnits="userSpaceOnUse">
<stop stop-color="#6C508A"/>
<stop offset="1" stop-color="#795A9D"/>
</linearGradient>
</defs>
</svg>
