<svg width="323" height="177" viewBox="0 0 323 177" fill="none" xmlns="http://www.w3.org/2000/svg">
<path opacity="0.08" d="M319.178 -41.4479C322.346 -36.6785 321.702 -29.186 316.851 -19.1696C312.051 -9.25852 303.357 2.63247 291.4 15.7354C267.501 41.9237 230.801 72.699 186.96 101.819C143.118 130.939 100.52 152.834 67.1141 164.708C50.3999 170.649 36.0682 174.052 25.0711 174.634C13.9573 175.222 6.80127 172.91 3.63334 168.141C0.465407 163.371 1.10947 155.879 5.96079 145.862C10.7611 135.951 19.4548 124.06 31.4121 110.957C55.3106 84.7691 92.0105 53.9937 135.852 24.8738C179.693 -4.24615 222.291 -26.1415 255.698 -38.0156C272.412 -43.9567 286.744 -47.3594 297.741 -47.9411C308.854 -48.5289 316.01 -46.2174 319.178 -41.4479Z" stroke="url(#paint0_linear_1115_64)" stroke-width="3"/>
<defs>
<linearGradient id="paint0_linear_1115_64" x1="-41.6791" y1="185.055" x2="302.533" y2="-7.32881" gradientUnits="userSpaceOnUse">
<stop stop-color="#6C508A"/>
<stop offset="1" stop-color="#795A9D"/>
</linearGradient>
</defs>
</svg>
